<svg width="32" height="34" viewBox="0 0 32 34" fill="none" xmlns="http://www.w3.org/2000/svg">
<path d="M19.1925 0H2.74002C2.71557 0 2.6908 0.00338797 2.66729 0.0101252C0.748682 0.560061 0.0895498 2.12193 0 2.83833V30.1527C0 30.1744 0.00270804 30.1966 0.00803992 30.2177C0.557263 32.39 2.24146 32.9939 3.01854 33.0238H5.87665C5.89347 33.0238 5.91045 33.0222 5.92697 33.019C7.82265 32.6552 9.01216 31.7304 9.371 31.3118L15.0477 25.4098C15.4441 24.9413 15.8736 25.2146 16.0388 25.4098L21.9858 31.6271C22.959 32.7805 24.4938 33.0388 25.1395 33.0238H31.5442C31.5693 33.0238 31.5951 33.0203 31.6189 33.0125C32.3243 32.7808 31.8922 31.9963 31.5821 31.6271L24.4354 23.8268C24.3141 23.6944 24.3549 23.4819 24.513 23.3969C29.8569 20.5221 30.8881 14.7115 30.7261 12.1192C29.8971 2.6401 22.6916 0.0901058 19.1925 0Z" fill="url(#paint0_linear_696_160)"/>
<path d="M8.46991 25.8151V20.7242C5.04589 20.3277 4.21992 17.5855 4.23494 16.2639V8.83019C4.41515 5.76659 6.9231 4.73037 8.15454 4.59521H19.3727C23.2653 4.81147 24.5989 7.92913 24.7791 9.46093V16.0387C24.1663 19.6789 20.9195 20.6791 19.3727 20.7242H14.6872C14.0745 20.7242 13.651 21.0545 13.5158 21.2197L9.19076 25.8602C8.75825 26.2927 8.52998 26.0104 8.46991 25.8151Z" fill="white"/>
<path d="M18.6466 11.5624L19.8644 10.8085C19.9499 10.7555 20.0577 10.7544 20.1442 10.8056L21.4645 11.5857C21.6658 11.7046 21.9129 11.5292 21.867 11.3L21.5647 9.78818C21.5464 9.69671 21.5766 9.60226 21.6445 9.53832L22.5983 8.64064C22.7727 8.47645 22.6632 8.18327 22.4238 8.17369L20.9937 8.11649C20.8851 8.11214 20.7896 8.04312 20.7514 7.9413L20.2566 6.62173C20.1689 6.38786 19.8381 6.38786 19.7504 6.62173L19.2555 7.9413C19.2174 8.04312 19.1219 8.11214 19.0132 8.11649L17.5816 8.17375C17.3424 8.18332 17.2328 8.47604 17.4068 8.64038L18.4519 9.62748C18.5202 9.69195 18.5501 9.78722 18.531 9.87914L18.2397 11.2774C18.1912 11.5099 18.4447 11.6874 18.6466 11.5624Z" fill="#F9B60D"/>
<path d="M17.1201 13.3355V18.6518C17.1201 18.8011 17.2411 18.9221 17.3904 18.9221H19.4628C19.6121 18.9221 19.7332 18.8011 19.7332 18.6518V13.3355C19.7332 13.1862 19.6121 13.0652 19.4628 13.0652H17.3904C17.2411 13.0652 17.1201 13.1862 17.1201 13.3355Z" fill="#102545"/>
<path d="M12.1643 18.9221H16.3993C16.5485 18.9221 16.6696 18.8011 16.6696 18.6518V9.55108C16.6696 9.40179 16.5485 9.28076 16.3993 9.28076H12.1643C12.015 9.28076 11.894 9.40179 11.894 9.55108V18.6518C11.894 18.8011 12.015 18.9221 12.1643 18.9221Z" fill="#102545"/>
<path d="M9.19079 18.9221H11.2632C11.4125 18.9221 11.5335 18.8011 11.5335 18.6518V13.8762C11.5335 13.7269 11.4125 13.6058 11.2632 13.6058H9.19079C9.0415 13.6058 8.92047 13.7269 8.92047 13.8762V18.6518C8.92047 18.8011 9.0415 18.9221 9.19079 18.9221Z" fill="#102545"/>
<rect x="12.795" y="16.3091" width="1.17138" height="1.17138" fill="white"/>
<rect x="12.795" y="14.4167" width="1.17138" height="1.17138" fill="white"/>
<rect x="9.64136" y="14.5068" width="1.17138" height="1.17138" fill="white"/>
<rect x="9.64136" y="16.219" width="1.17138" height="1.17138" fill="white"/>
<rect x="17.8409" y="14.4167" width="1.17138" height="1.17138" fill="white"/>
<rect x="17.8409" y="16.1289" width="1.17138" height="1.17138" fill="white"/>
<rect x="12.795" y="12.5247" width="1.17138" height="1.17138" fill="white"/>
<rect x="12.795" y="10.6323" width="1.17138" height="1.17138" fill="white"/>
<rect x="14.5972" y="16.3091" width="1.17138" height="1.17138" fill="white"/>
<rect x="14.5972" y="14.4167" width="1.17138" height="1.17138" fill="white"/>
<rect x="14.5972" y="12.5247" width="1.17138" height="1.17138" fill="white"/>
<rect x="14.5972" y="10.6323" width="1.17138" height="1.17138" fill="white"/>
<defs>
<linearGradient id="paint0_linear_696_160" x1="16.0388" y1="1.56843e-08" x2="11.3984" y2="33.0688" gradientUnits="userSpaceOnUse">
<stop offset="0.518655" stop-color="#005FF3"/>
<stop offset="0.962354" stop-color="#102545"/>
</linearGradient>
</defs>
</svg>
